<svg width="578" height="73" viewBox="0 0 578 73" fill="none" xmlns="http://www.w3.org/2000/svg">
<path d="M6.22727 71.5455C4.54545 71.5455 3.10227 70.9432 1.89773 69.7386C0.693182 68.5341 0.0909095 67.0909 0.0909095 65.4091C0.0909095 63.7273 0.693182 62.2841 1.89773 61.0795C3.10227 59.875 4.54545 59.2727 6.22727 59.2727C7.90909 59.2727 9.35227 59.875 10.5568 61.0795C11.7614 62.2841 12.3636 63.7273 12.3636 65.4091C12.3636 66.5227 12.0795 67.5455 11.5114 68.4773C10.9659 69.4091 10.2273 70.1591 9.29546 70.7273C8.38636 71.2727 7.36364 71.5455 6.22727 71.5455ZM27.892 1.18182H37.983L61.7102 59.1364H62.5284L86.2557 1.18182H96.3466V71H88.4375V17.9545H87.7557L65.9375 71H58.3011L36.483 17.9545H35.8011V71H27.892V1.18182ZM159.116 1.18182H167.571V47.4091C167.571 52.1818 166.446 56.4432 164.196 60.1932C161.969 63.9205 158.821 66.8636 154.753 69.0227C150.685 71.1591 145.912 72.2273 140.435 72.2273C134.957 72.2273 130.185 71.1591 126.116 69.0227C122.048 66.8636 118.889 63.9205 116.639 60.1932C114.412 56.4432 113.298 52.1818 113.298 47.4091V1.18182H121.753V46.7273C121.753 50.1364 122.503 53.1705 124.003 55.8295C125.503 58.4659 127.639 60.5455 130.412 62.0682C133.207 63.5682 136.548 64.3182 140.435 64.3182C144.321 64.3182 147.662 63.5682 150.457 62.0682C153.253 60.5455 155.389 58.4659 156.866 55.8295C158.366 53.1705 159.116 50.1364 159.116 46.7273V1.18182ZM222.636 18.6364C222.227 15.1818 220.568 12.5 217.659 10.5909C214.75 8.68182 211.182 7.72727 206.955 7.72727C203.864 7.72727 201.159 8.22727 198.841 9.22727C196.545 10.2273 194.75 11.6023 193.455 13.3523C192.182 15.1023 191.545 17.0909 191.545 19.3182C191.545 21.1818 191.989 22.7841 192.875 24.125C193.784 25.4432 194.943 26.5455 196.352 27.4318C197.761 28.2955 199.239 29.0114 200.784 29.5795C202.33 30.125 203.75 30.5682 205.045 30.9091L212.136 32.8182C213.955 33.2955 215.977 33.9545 218.205 34.7955C220.455 35.6364 222.602 36.7841 224.648 38.2386C226.716 39.6705 228.42 41.5114 229.761 43.7614C231.102 46.0114 231.773 48.7727 231.773 52.0455C231.773 55.8182 230.784 59.2273 228.807 62.2727C226.852 65.3182 223.989 67.7386 220.216 69.5341C216.466 71.3295 211.909 72.2273 206.545 72.2273C201.545 72.2273 197.216 71.4205 193.557 69.8068C189.92 68.1932 187.057 65.9432 184.966 63.0568C182.898 60.1705 181.727 56.8182 181.455 53H190.182C190.409 55.6364 191.295 57.8182 192.841 59.5455C194.409 61.25 196.386 62.5227 198.773 63.3636C201.182 64.1818 203.773 64.5909 206.545 64.5909C209.773 64.5909 212.67 64.0682 215.239 63.0227C217.807 61.9545 219.841 60.4773 221.341 58.5909C222.841 56.6818 223.591 54.4545 223.591 51.9091C223.591 49.5909 222.943 47.7045 221.648 46.25C220.352 44.7955 218.648 43.6136 216.534 42.7045C214.42 41.7955 212.136 41 209.682 40.3182L201.091 37.8636C195.636 36.2955 191.318 34.0568 188.136 31.1477C184.955 28.2386 183.364 24.4318 183.364 19.7273C183.364 15.8182 184.42 12.4091 186.534 9.5C188.67 6.56818 191.534 4.29545 195.125 2.68182C198.739 1.04545 202.773 0.22727 207.227 0.22727C211.727 0.22727 215.727 1.03409 219.227 2.64772C222.727 4.23863 225.5 6.42045 227.545 9.19318C229.614 11.9659 230.705 15.1136 230.818 18.6364H222.636ZM254.128 1.18182V71H245.673V1.18182H254.128ZM327.261 23H318.807C318.307 20.5682 317.432 18.4318 316.182 16.5909C314.955 14.75 313.455 13.2045 311.682 11.9545C309.932 10.6818 307.989 9.72727 305.852 9.09091C303.716 8.45454 301.489 8.13636 299.17 8.13636C294.943 8.13636 291.114 9.20454 287.682 11.3409C284.273 13.4773 281.557 16.625 279.534 20.7841C277.534 24.9432 276.534 30.0455 276.534 36.0909C276.534 42.1364 277.534 47.2386 279.534 51.3977C281.557 55.5568 284.273 58.7045 287.682 60.8409C291.114 62.9773 294.943 64.0455 299.17 64.0455C301.489 64.0455 303.716 63.7273 305.852 63.0909C307.989 62.4545 309.932 61.5114 311.682 60.2614C313.455 58.9886 314.955 57.4318 316.182 55.5909C317.432 53.7273 318.307 51.5909 318.807 49.1818H327.261C326.625 52.75 325.466 55.9432 323.784 58.7614C322.102 61.5795 320.011 63.9773 317.511 65.9545C315.011 67.9091 312.205 69.3977 309.091 70.4205C306 71.4432 302.693 71.9545 299.17 71.9545C293.216 71.9545 287.92 70.5 283.284 67.5909C278.648 64.6818 275 60.5455 272.341 55.1818C269.682 49.8182 268.352 43.4545 268.352 36.0909C268.352 28.7273 269.682 22.3636 272.341 17C275 11.6364 278.648 7.5 283.284 4.59091C287.92 1.68182 293.216 0.22727 299.17 0.22727C302.693 0.22727 306 0.738634 309.091 1.76136C312.205 2.78409 315.011 4.28409 317.511 6.26136C320.011 8.21591 322.102 10.6023 323.784 13.4205C325.466 16.2159 326.625 19.4091 327.261 23ZM342.151 39.9091V34.4545L386.06 12.0909V20.8182L352.378 37.0455L352.651 36.5V37.8636L352.378 37.3182L386.06 53.5455V62.2727L342.151 39.9091ZM407.068 71H398.205L423.841 1.18182H432.568L458.205 71H449.341L428.477 12.2273H427.932L407.068 71ZM410.341 43.7273H446.068V51.2273H410.341V43.7273ZM469.08 71V1.18182H492.67C498.148 1.18182 502.625 2.17045 506.102 4.14772C509.602 6.10227 512.193 8.75 513.875 12.0909C515.557 15.4318 516.398 19.1591 516.398 23.2727C516.398 27.3864 515.557 31.125 513.875 34.4886C512.216 37.8523 509.648 40.5341 506.17 42.5341C502.693 44.5114 498.239 45.5 492.807 45.5H475.898V38H492.534C496.284 38 499.295 37.3523 501.568 36.0568C503.841 34.7614 505.489 33.0114 506.511 30.8068C507.557 28.5795 508.08 26.0682 508.08 23.2727C508.08 20.4773 507.557 17.9773 506.511 15.7727C505.489 13.5682 503.83 11.8409 501.534 10.5909C499.239 9.31818 496.193 8.68182 492.398 8.68182H477.534V71H469.08ZM530.017 71V1.18182H553.608C559.085 1.18182 563.563 2.17045 567.04 4.14772C570.54 6.10227 573.131 8.75 574.812 12.0909C576.494 15.4318 577.335 19.1591 577.335 23.2727C577.335 27.3864 576.494 31.125 574.812 34.4886C573.153 37.8523 570.585 40.5341 567.108 42.5341C563.631 44.5114 559.176 45.5 553.744 45.5H536.835V38H553.472C557.222 38 560.233 37.3523 562.506 36.0568C564.778 34.7614 566.426 33.0114 567.449 30.8068C568.494 28.5795 569.017 26.0682 569.017 23.2727C569.017 20.4773 568.494 17.9773 567.449 15.7727C566.426 13.5682 564.767 11.8409 562.472 10.5909C560.176 9.31818 557.131 8.68182 553.335 8.68182H538.472V71H530.017Z" fill="white"/>
</svg>
