<svg width="774" height="603" viewBox="0 0 774 603" fill="none" xmlns="http://www.w3.org/2000/svg">
<path d="M194.568 325.886C192.273 325.886 190.386 325.091 188.909 323.5C187.455 321.909 186.795 319.977 186.932 317.705C187.091 315.455 188.034 313.557 189.761 312.011C191.511 310.443 193.523 309.659 195.795 309.659C197.977 309.659 199.818 310.443 201.318 312.011C202.818 313.58 203.477 315.477 203.295 317.705C203.182 319.205 202.693 320.58 201.83 321.83C200.989 323.057 199.92 324.045 198.625 324.795C197.33 325.523 195.977 325.886 194.568 325.886ZM225.889 255.182H244.094L255.582 302.091H256.401L283.366 255.182H301.571L289.98 325H275.662L283.23 279.557H282.616L257.116 324.659H247.332L236.832 279.386H236.253L228.616 325H214.298L225.889 255.182ZM356.858 255.182H371.619L364.119 300.523C363.278 305.614 361.335 310.068 358.29 313.886C355.244 317.705 351.369 320.682 346.665 322.818C341.96 324.932 336.71 325.989 330.915 325.989C325.119 325.989 320.233 324.932 316.256 322.818C312.278 320.682 309.403 317.705 307.631 313.886C305.858 310.068 305.392 305.614 306.233 300.523L313.733 255.182H328.494L321.165 299.261C320.756 301.92 320.96 304.284 321.778 306.352C322.619 308.42 324.006 310.045 325.938 311.227C327.869 312.409 330.256 313 333.097 313C335.96 313 338.551 312.409 340.869 311.227C343.21 310.045 345.131 308.42 346.631 306.352C348.153 304.284 349.119 301.92 349.528 299.261L356.858 255.182ZM418.23 275.466C418.344 272.625 417.514 270.432 415.741 268.886C413.991 267.341 411.344 266.568 407.798 266.568C405.389 266.568 403.298 266.909 401.526 267.591C399.753 268.25 398.332 269.17 397.264 270.352C396.219 271.511 395.571 272.852 395.321 274.375C395.071 275.625 395.151 276.716 395.56 277.648C395.991 278.58 396.662 279.386 397.571 280.068C398.503 280.727 399.605 281.307 400.878 281.807C402.151 282.284 403.503 282.693 404.935 283.034L410.935 284.534C413.866 285.216 416.503 286.125 418.844 287.261C421.207 288.398 423.185 289.795 424.776 291.455C426.389 293.114 427.526 295.068 428.185 297.318C428.844 299.568 428.935 302.148 428.457 305.057C427.73 309.33 426.037 313.034 423.378 316.17C420.719 319.284 417.23 321.705 412.912 323.432C408.594 325.136 403.594 325.989 397.912 325.989C392.276 325.989 387.514 325.125 383.628 323.398C379.741 321.67 376.912 319.114 375.139 315.727C373.389 312.318 372.866 308.102 373.571 303.08H387.855C387.605 305.42 387.946 307.375 388.878 308.943C389.832 310.489 391.253 311.659 393.139 312.455C395.026 313.227 397.241 313.614 399.787 313.614C402.31 313.614 404.548 313.25 406.503 312.523C408.48 311.795 410.082 310.784 411.31 309.489C412.537 308.193 413.287 306.705 413.56 305.023C413.832 303.455 413.594 302.136 412.844 301.068C412.094 300 410.889 299.091 409.23 298.341C407.594 297.568 405.56 296.886 403.128 296.295L395.832 294.386C390.196 292.955 385.935 290.716 383.048 287.67C380.162 284.625 379.128 280.523 379.946 275.364C380.673 271.136 382.435 267.443 385.23 264.284C388.048 261.102 391.594 258.636 395.866 256.886C400.162 255.114 404.855 254.227 409.946 254.227C415.128 254.227 419.503 255.125 423.071 256.92C426.639 258.693 429.241 261.17 430.878 264.352C432.514 267.534 433.014 271.239 432.378 275.466H418.23ZM461.432 255.182L449.841 325H435.08L446.67 255.182H461.432ZM531.054 279.625H516.327C516.372 277.67 516.122 275.943 515.577 274.443C515.031 272.92 514.213 271.625 513.122 270.557C512.054 269.489 510.747 268.682 509.202 268.136C507.656 267.568 505.918 267.284 503.986 267.284C500.259 267.284 496.838 268.216 493.724 270.08C490.611 271.943 487.986 274.648 485.849 278.193C483.713 281.716 482.236 285.977 481.418 290.977C480.622 295.795 480.668 299.83 481.554 303.08C482.44 306.33 484.009 308.784 486.259 310.443C488.531 312.08 491.361 312.898 494.747 312.898C496.838 312.898 498.827 312.636 500.713 312.114C502.599 311.568 504.315 310.795 505.861 309.795C507.429 308.773 508.793 307.534 509.952 306.08C511.134 304.625 512.054 302.977 512.713 301.136H527.543C526.611 304.341 525.156 307.432 523.179 310.409C521.224 313.386 518.804 316.045 515.918 318.386C513.031 320.705 509.747 322.545 506.065 323.909C502.384 325.273 498.349 325.955 493.963 325.955C487.622 325.955 482.179 324.5 477.634 321.591C473.111 318.682 469.849 314.489 467.849 309.011C465.849 303.534 465.474 296.932 466.724 289.205C467.974 281.727 470.418 275.386 474.054 270.182C477.713 264.955 482.156 260.989 487.384 258.284C492.634 255.58 498.247 254.227 504.224 254.227C508.384 254.227 512.145 254.795 515.509 255.932C518.872 257.068 521.736 258.727 524.099 260.909C526.486 263.068 528.281 265.716 529.486 268.852C530.69 271.989 531.213 275.58 531.054 279.625ZM541.469 296.534L543.48 284.534L594.923 263.398L592.673 277.205L557.628 290.398L558.173 289.682L557.866 291.386L557.491 290.67L588.276 303.864L585.957 317.67L541.469 296.534ZM197.739 441H181.92L217.614 371.182H236.636L249.114 441H233.295L224.807 387.136H224.261L197.739 441ZM201.352 413.557H238.716L236.739 425.08H199.375L201.352 413.557ZM257.517 441L269.108 371.182H296.653C301.926 371.182 306.256 372.193 309.642 374.216C313.051 376.216 315.438 379 316.801 382.568C318.188 386.114 318.506 390.205 317.756 394.841C316.983 399.5 315.301 403.602 312.71 407.148C310.142 410.67 306.801 413.42 302.688 415.398C298.574 417.375 293.824 418.364 288.438 418.364H270.881L272.824 406.534H287.994C290.858 406.534 293.301 406.045 295.324 405.068C297.369 404.068 298.994 402.693 300.199 400.943C301.403 399.17 302.188 397.136 302.551 394.841C302.938 392.5 302.813 390.466 302.176 388.739C301.54 387.011 300.369 385.67 298.665 384.716C296.983 383.739 294.722 383.25 291.881 383.25H281.926L272.278 441H257.517ZM319.673 441L331.264 371.182H358.81C364.082 371.182 368.412 372.193 371.798 374.216C375.207 376.216 377.594 379 378.957 382.568C380.344 386.114 380.662 390.205 379.912 394.841C379.139 399.5 377.457 403.602 374.866 407.148C372.298 410.67 368.957 413.42 364.844 415.398C360.73 417.375 355.98 418.364 350.594 418.364H333.037L334.98 406.534H350.151C353.014 406.534 355.457 406.045 357.48 405.068C359.526 404.068 361.151 402.693 362.355 400.943C363.56 399.17 364.344 397.136 364.707 394.841C365.094 392.5 364.969 390.466 364.332 388.739C363.696 387.011 362.526 385.67 360.821 384.716C359.139 383.739 356.878 383.25 354.037 383.25H344.082L334.435 441H319.673Z" fill="white"/>
<path d="M244.5 389.5L68.4886 561.488" stroke="#1D9DB9"/>
<path d="M376.35 78.2785L55.0101 239" stroke="#1D9DB9"/>
<line x1="498.555" y1="515.771" x2="586.544" y2="344.771" stroke="#1D9DB9"/>
<line x1="622.382" y1="232.323" x2="589.382" y2="271.311" stroke="#1D9DB9"/>
<line x1="184.361" y1="95.3576" x2="8.34943" y2="267.346" stroke="#1D9DB9"/>
<line x1="665.954" y1="377.498" x2="0.954324" y2="316.498" stroke="#1D9DB9"/>
<path d="M11 476L25 94L336 335L265 59L141 275L153 1L655 69L573 195L692 235L195 602" stroke="#1D9DB9"/>
</svg>
